<svg xmlns="http://www.w3.org/2000/svg" width="868.5722045898438" height="716.8591918945312" viewBox="-440.5821533203125 -311.725341796875 868.5722045898438 716.8591918945312"><title>Neo4j Graph Visualization</title><desc>Created using Neo4j (http://www.neo4j.com/)</desc><g class="layer relationships"><g class="relationship" transform="translate(-20.37520765637871 224.1910965316182) rotate(379.65487177209695)"><path class="b-outline" fill="#A5ABB6" stroke="none" d="M 25 0.5 L 29.674924190910552 0.5 L 29.674924190910552 -0.5 L 25 -0.5 Z M 77.89758044091056 0.5 L 82.5725046318211 0.5 L 82.5725046318211 3.5 L 89.5725046318211 0 L 82.5725046318211 -3.5 L 82.5725046318211 -0.5 L 77.89758044091056 -0.5 Z"/><text text-anchor="middle" pointer-events="none" font-size="8px" fill="#000000" x="53.78625231591055" y="3" font-family="Helvetica Neue, Helvetica, Arial, sans-serif">MENTIONS</text></g><g class="relationship" transform="translate(-20.37520765637871 224.1910965316182) rotate(452.47205174110536)"><path class="b-outline" fill="#A5ABB6" stroke="none" d="M 25 0.5 L 48.43077825085838 0.5 L 48.43077825085838 -0.5 L 25 -0.5 Z M 96.65343450085838 0.5 L 120.08421275171676 0.5 L 120.08421275171676 3.5 L 127.08421275171676 0 L 120.08421275171676 -3.5 L 120.08421275171676 -0.5 L 96.65343450085838 -0.5 Z"/><text text-anchor="middle" pointer-events="none" font-size="8px" fill="#000000" x="72.54210637585838" y="3" transform="rotate(180 72.54210637585838 0)" font-family="Helvetica Neue, Helvetica, Arial, sans-serif">MENTIONS</text></g><g class="relationship" transform="translate(-20.37520765637871 224.1910965316182) rotate(326.0110442364304)"><path class="b-outline" fill="#A5ABB6" stroke="none" d="M 25 0.5 L 79.72236059652569 0.5 L 79.72236059652569 -0.5 L 25 -0.5 Z M 127.94501684652569 0.5 L 182.66737744305138 0.5 L 182.66737744305138 3.5 L 189.66737744305138 0 L 182.66737744305138 -3.5 L 182.66737744305138 -0.5 L 127.94501684652569 -0.5 Z"/><text text-anchor="middle" pointer-events="none" font-size="8px" fill="#000000" x="103.83368872152569" y="3" font-family="Helvetica Neue, Helvetica, Arial, sans-serif">MENTIONS</text></g><g class="relationship" transform="translate(157.61524933576948 104.18492936507741) rotate(246.59463010558204)"><path class="b-outline" fill="#A5ABB6" stroke="none" d="M 24.018736134675446,-6.953439040707552 L 24.277555179777966,-5.987513214418485 A 236.97974069981473 236.97974069981473 0 0 1 65.18323348458271,-13.180195492076962 L 65.09702699354919,-14.176472783248272 A 237.97974069981473 237.97974069981473 0 0 0 24.018736134675446,-6.953439040707552 Z M 101.35893963510004,-14.540877210095175 L 101.29277217810372,-13.543068677542635 A 236.97974069981473 236.97974069981473 0 0 1 142.33473671584554,-7.173897396578553 L 141.61667139297876,-4.261101112576489 L 149.25093893232815,-5.983877690556435 L 143.29215714633457,-11.057625775247974 L 142.5740918234678,-8.14482949124591 A 237.97974069981473 237.97974069981473 0 0 0 101.35893963510004,-14.540877210095175"/><text text-anchor="middle" pointer-events="none" font-size="8px" fill="#000000" x="83.22605650663358" y="-11.55041177872414" transform="rotate(180 83.22605650663358 -14.55041177872414)" font-family="Helvetica Neue, Helvetica, Arial, sans-serif">POWER</text></g><g class="relationship" transform="translate(157.61524933576948 104.18492936507741) rotate(282.312139333743)"><path class="b-outline" fill="#A5ABB6" stroke="none" d="M 5.987513214418485,-24.277555179777966 L 6.953439040707552,-24.018736134675446 A 94.05306485552622 94.05306485552622 0 0 1 70.22006867268786,-89.5939260982712 L 69.9268123625827,-90.54995995571743 A 95.05306485552622 95.05306485552622 0 0 0 5.987513214418485,-24.277555179777966 Z M 119.4578447737319,-92.22922637446553 L 119.23001286341585,-91.25552589657629 A 94.05306485552622 94.05306485552622 0 0 1 186.79269593232235,-30.115883926062338 L 183.9541609209631,-29.14494675544434 L 189.53130516565756,-23.65445842799373 L 190.57740928080136,-31.41046682021967 L 187.7388742694421,-30.439529649601674 A 95.05306485552622 95.05306485552622 0 0 0 119.4578447737319,-92.22922637446553"/><text text-anchor="middle" pointer-events="none" font-size="8px" fill="#000000" x="94.59790141935044" y="-91.17478205223176" font-family="Helvetica Neue, Helvetica, Arial, sans-serif">OBSERVES</text></g><g class="relationship" transform="translate(157.61524933576948 104.18492936507741) rotate(282.312139333743)"><path class="b-outline" fill="#A5ABB6" stroke="none" d="M 13.473521019338785,-21.06452542407343 L 14.30499063164133,-20.50895519105383 A 100.42066668370235 100.42066668370235 0 0 1 81.59072553267237,-63.821773121088455 L 81.42929463971993,-64.8086571400089 A 101.42066668370235 101.42066668370235 0 0 0 13.473521019338785,-21.06452542407343 Z M 108.36982119930646,-65.58678469596971 L 108.26562056526839,-64.59222839898794 A 100.42066668370235 100.42066668370235 0 0 1 177.9391211638218,-25.235226067057695 L 175.5450702064647,-23.427321198548984 L 182.55657434990164,-19.95042464464255 L 181.1311891069646,-27.645765891735973 L 178.7371381496075,-25.837861023227262 A 101.42066668370235 101.42066668370235 0 0 0 108.36982119930646,-65.58678469596971"/><text text-anchor="middle" pointer-events="none" font-size="8px" fill="#000000" x="94.88803070175071" y="-62.59681912998475" font-family="Helvetica Neue, Helvetica, Arial, sans-serif">HELP</text></g><g class="relationship" transform="translate(157.61524933576948 104.18492936507741) rotate(282.312139333743)"><path class="b-outline" fill="#A5ABB6" stroke="none" d="M 19.529452792776517,-15.615712395363635 L 20.13821422178524,-14.822359055072399 A 127.57626469696183 127.57626469696183 0 0 1 68.27813841000216,-37.722401906678755 L 68.04671930483843,-38.695256056983524 A 128.57626469696183 128.57626469696183 0 0 0 19.529452792776517,-15.615712395363635 Z M 122.28586334089451,-39.8328460329998 L 122.0954383042651,-38.851144293455306 A 127.57626469696183 127.57626469696183 0 0 1 171.15319859207509,-17.989686554446312 L 169.4283132772399,-15.535145731671943 L 177.16794139768783,-14.374044290293249 L 173.45304567852202,-21.262407651478807 L 171.72816036368684,-18.807866828704437 A 128.57626469696183 128.57626469696183 0 0 0 122.28586334089451,-39.8328460329998"/><text text-anchor="middle" pointer-events="none" font-size="8px" fill="#000000" x="95.11609402885078" y="-38.65740745436534" font-family="Helvetica Neue, Helvetica, Arial, sans-serif">FRIENDSHIP</text></g><g class="relationship" transform="translate(157.61524933576948 104.18492936507741) rotate(282.312139333743)"><path class="b-outline" fill="#A5ABB6" stroke="none" d="M 23.51253350472606,-8.509451697326591 L 23.833972970029226,-7.562521567831486 A 230.11409126913443 230.11409126913443 0 0 1 43.19041791070309,-13.200485337337653 L 42.95309517564412,-14.171916199223432 A 231.11409126913443 231.11409126913443 0 0 0 23.51253350472606,-8.509451697326591 Z M 147.69110179863952,-15.325734535691566 L 147.475237079624,-14.349311254995968 A 230.11409126913443 230.11409126913443 0 0 1 166.9511876723374,-9.139134221747591 L 166.04968532802647,-6.277789516333389 L 173.7779090423557,-7.512519535924454 L 168.15319079808532,-12.954260495633196 L 167.2516884537744,-10.092915790218994 A 231.11409126913443 231.11409126913443 0 0 0 147.69110179863952,-15.325734535691566"/><text text-anchor="middle" pointer-events="none" font-size="8px" fill="#000000" x="95.26137889041487" y="-17.260654503054923" font-family="Helvetica Neue, Helvetica, Arial, sans-serif">WITH_HEART_AND_SOUL</text></g><g class="relationship" transform="translate(157.61524933576948 104.18492936507741) rotate(282.312139333743)"><path class="b-outline" fill="#A5ABB6" stroke="none" d="M 25 0.5 L 56.66864600207042 0.5 L 56.66864600207042 -0.5 L 25 -0.5 Z M 133.95380225207043 0.5 L 165.62244825414083 0.5 L 165.62244825414083 3.5 L 172.62244825414083 0 L 165.62244825414083 -3.5 L 165.62244825414083 -0.5 L 133.95380225207043 -0.5 Z"/><text text-anchor="middle" pointer-events="none" font-size="8px" fill="#000000" x="95.31122412707042" y="3" font-family="Helvetica Neue, Helvetica, Arial, sans-serif">SAW_TO_STATION</text></g><g class="relationship" transform="translate(157.61524933576948 104.18492936507741) rotate(282.312139333743)"><path class="b-outline" fill="#A5ABB6" stroke="none" d="M 23.51253350472606,8.509451697326591 L 23.833972970029226,7.562521567831486 A 230.11409126913443 230.11409126913443 0 0 0 65.61318465893089,17.51224606274542 L 65.47330387809802,18.50241441568022 A 231.11409126913443 231.11409126913443 0 0 1 23.51253350472606,8.509451697326591 Z M 125.08095843940878,19.159066256250924 L 124.96292480994332,18.166056657951287 A 230.11409126913443 230.11409126913443 0 0 0 166.9511876723374,9.139134221747591 L 166.04968532802647,6.277789516333389 L 173.7779090423557,7.512519535924454 L 168.15319079808532,12.954260495633196 L 167.2516884537744,10.092915790218994 A 231.11409126913443 231.11409126913443 0 0 1 125.08095843940878,19.159066256250924"/><text text-anchor="middle" pointer-events="none" font-size="8px" fill="#000000" x="95.26137889041492" y="23.260654503054923" font-family="Helvetica Neue, Helvetica, Arial, sans-serif">GOT_PAPERS</text></g><g class="relationship" transform="translate(157.61524933576948 104.18492936507741) rotate(327.7398859048571)"><path class="b-outline" fill="#A5ABB6" stroke="none" d="M 25 0.5 L 76.09128380712501 0.5 L 76.09128380712501 -0.5 L 25 -0.5 Z M 115.86862755712501 0.5 L 166.95991136425002 0.5 L 166.95991136425002 3.5 L 173.95991136425002 0 L 166.95991136425002 -3.5 L 166.95991136425002 -0.5 L 115.86862755712501 -0.5 Z"/><text text-anchor="middle" pointer-events="none" font-size="8px" fill="#000000" x="95.97995568212501" y="3" font-family="Helvetica Neue, Helvetica, Arial, sans-serif">CAUGHT</text></g><g class="relationship" transform="translate(-26.934912638947072 376.13377664109606) rotate(315.26425233339125)"><path class="b-outline" fill="#A5ABB6" stroke="none" d="M 25 0.5 L 58.949146897692344 0.5 L 58.949146897692344 -0.5 L 25 -0.5 Z M 95.17570939769234 0.5 L 129.1248562953847 0.5 L 129.1248562953847 3.5 L 136.1248562953847 0 L 129.1248562953847 -3.5 L 129.1248562953847 -0.5 L 95.17570939769234 -0.5 Z"/><text text-anchor="middle" pointer-events="none" font-size="8px" fill="#000000" x="77.06242814769234" y="3" font-family="Helvetica Neue, Helvetica, Arial, sans-serif">DRIVER</text></g><g class="relationship" transform="translate(87.52181720221806 262.7279729524183) rotate(293.85069099901455)"><path class="b-outline" fill="#A5ABB6" stroke="none" d="M 25 0.5 L 60.390013467841214 0.5 L 60.390013467841214 -0.5 L 25 -0.5 Z M 105.95641971784121 0.5 L 141.34643318568243 0.5 L 141.34643318568243 3.5 L 148.34643318568243 0 L 141.34643318568243 -3.5 L 141.34643318568243 -0.5 L 105.95641971784121 -0.5 Z"/><text text-anchor="middle" pointer-events="none" font-size="8px" fill="#000000" x="83.17321659284121" y="3" font-family="Helvetica Neue, Helvetica, Arial, sans-serif">ASSISTED</text></g><g class="relationship" transform="translate(330.8131965580722 265.75653036534504) rotate(206.9153081575173)"><path class="b-outline" fill="#A5ABB6" stroke="none" d="M 25 0.5 L 39.65785842489855 0.5 L 39.65785842489855 -0.5 L 25 -0.5 Z M 87.88051467489855 0.5 L 102.5383730997971 0.5 L 102.5383730997971 3.5 L 109.5383730997971 0 L 102.5383730997971 -3.5 L 102.5383730997971 -0.5 L 87.88051467489855 -0.5 Z"/><text text-anchor="middle" pointer-events="none" font-size="8px" fill="#000000" x="63.76918654989855" y="3" transform="rotate(180 63.76918654989855 0)" font-family="Helvetica Neue, Helvetica, Arial, sans-serif">MENTIONS</text></g><g class="relationship" transform="translate(330.8131965580722 265.75653036534504) rotate(301.24714304157476)"><path class="b-outline" fill="#A5ABB6" stroke="none" d="M 25 0.5 L 38.10371971487156 0.5 L 38.10371971487156 -0.5 L 25 -0.5 Z M 86.32637596487156 0.5 L 99.43009567974312 0.5 L 99.43009567974312 3.5 L 106.43009567974312 0 L 99.43009567974312 -3.5 L 99.43009567974312 -0.5 L 86.32637596487156 -0.5 Z"/><text text-anchor="middle" pointer-events="none" font-size="8px" fill="#000000" x="62.21504783987156" y="3" font-family="Helvetica Neue, Helvetica, Arial, sans-serif">MENTIONS</text></g><g class="relationship" transform="translate(330.8131965580722 265.75653036534504) rotate(253.216412674004)"><path class="b-outline" fill="#A5ABB6" stroke="none" d="M 25 0.5 L 67.11176257309124 0.5 L 67.11176257309124 -0.5 L 25 -0.5 Z M 115.33441882309124 0.5 L 157.44618139618248 0.5 L 157.44618139618248 3.5 L 164.44618139618248 0 L 157.44618139618248 -3.5 L 157.44618139618248 -0.5 L 115.33441882309124 -0.5 Z"/><text text-anchor="middle" pointer-events="none" font-size="8px" fill="#000000" x="91.22309069809124" y="3" transform="rotate(180 91.22309069809124 0)" font-family="Helvetica Neue, Helvetica, Arial, sans-serif">MENTIONS</text></g><g class="relationship" transform="translate(276.1091802357166 84.38032949048181) rotate(478.4443197466871)"><path class="b-outline" fill="#A5ABB6" stroke="none" d="M 25 0.5 L 42.22803978327735 0.5 L 42.22803978327735 -0.5 L 25 -0.5 Z M 87.78663353327735 0.5 L 105.0146733165547 0.5 L 105.0146733165547 3.5 L 112.0146733165547 0 L 105.0146733165547 -3.5 L 105.0146733165547 -0.5 L 87.78663353327735 -0.5 Z"/><text text-anchor="middle" pointer-events="none" font-size="8px" fill="#000000" x="65.00733665827735" y="3" transform="rotate(180 65.00733665827735 0)" font-family="Helvetica Neue, Helvetica, Arial, sans-serif">INTEREST</text></g><g class="relationship" transform="translate(276.1091802357166 84.38032949048181) rotate(299.93740606589256)"><path class="b-outline" fill="#A5ABB6" stroke="none" d="M 25 0.5 L 26.460891034391743 0.5 L 26.460891034391743 -0.5 L 25 -0.5 Z M 66.23432853439175 0.5 L 67.69521956878349 0.5 L 67.69521956878349 3.5 L 74.69521956878349 0 L 67.69521956878349 -3.5 L 67.69521956878349 -0.5 L 66.23432853439175 -0.5 Z"/><text text-anchor="middle" pointer-events="none" font-size="8px" fill="#000000" x="46.34760978439174" y="3" font-family="Helvetica Neue, Helvetica, Arial, sans-serif">MONIT…</text></g><g class="relationship" transform="translate(276.1091802357166 84.38032949048181) rotate(389.3191963231535)"><path class="b-outline" fill="#A5ABB6" stroke="none" d="M 25 0.5 L 52.85552071290192 0.5 L 52.85552071290192 -0.5 L 25 -0.5 Z M 81.07817696290192 0.5 L 108.93369767580384 0.5 L 108.93369767580384 3.5 L 115.93369767580384 0 L 108.93369767580384 -3.5 L 108.93369767580384 -0.5 L 81.07817696290192 -0.5 Z"/><text text-anchor="middle" pointer-events="none" font-size="8px" fill="#000000" x="66.96684883790192" y="3" font-family="Helvetica Neue, Helvetica, Arial, sans-serif">HOST</text></g><g class="relationship" transform="translate(398.99001272826644 153.39198174220513) rotate(244.80009142871984)"><path class="b-outline" fill="#A5ABB6" stroke="none" d="M 25 0.5 L 60.92995693171744 0.5 L 60.92995693171744 -0.5 L 25 -0.5 Z M 103.82058193171744 0.5 L 139.75053886343488 0.5 L 139.75053886343488 3.5 L 146.75053886343488 0 L 139.75053886343488 -3.5 L 139.75053886343488 -0.5 L 103.82058193171744 -0.5 Z"/><text text-anchor="middle" pointer-events="none" font-size="8px" fill="#000000" x="82.37526943171744" y="3" transform="rotate(180 82.37526943171744 0)" font-family="Helvetica Neue, Helvetica, Arial, sans-serif">MARRIED</text></g><g class="relationship" transform="translate(210.84847513694868 204.85464656285146) rotate(225.5756774747024)"><path class="b-outline" fill="#A5ABB6" stroke="none" d="M 25 0.5 L 84.44904900608294 0.5 L 84.44904900608294 -0.5 L 25 -0.5 Z M 111.78498650608294 0.5 L 171.2340355121659 0.5 L 171.2340355121659 3.5 L 178.2340355121659 0 L 171.2340355121659 -3.5 L 171.2340355121659 -0.5 L 111.78498650608294 -0.5 Z"/><text text-anchor="middle" pointer-events="none" font-size="8px" fill="#000000" x="98.11701775608294" y="3" transform="rotate(180 98.11701775608294 0)" font-family="Helvetica Neue, Helvetica, Arial, sans-serif">SENT</text></g><g class="relationship" transform="translate(210.84847513694868 204.85464656285146) rotate(344.7019934176137)"><path class="b-outline" fill="#A5ABB6" stroke="none" d="M 25 0.5 L 68.797947498692 0.5 L 68.797947498692 -0.5 L 25 -0.5 Z M 119.254978748692 0.5 L 163.052926247384 0.5 L 163.052926247384 3.5 L 170.052926247384 0 L 163.052926247384 -3.5 L 163.052926247384 -0.5 L 119.254978748692 -0.5 Z"/><text text-anchor="middle" pointer-events="none" font-size="8px" fill="#000000" x="94.026463123692" y="3" font-family="Helvetica Neue, Helvetica, Arial, sans-serif">EMPLOYER</text></g><g class="relationship" transform="translate(360.3945951614748 -126.87599624687475) rotate(465.45929622856954)"><path class="b-outline" fill="#A5ABB6" stroke="none" d="M 25 0.5 L 37.16389944217906 0.5 L 37.16389944217906 -0.5 L 25 -0.5 Z M 85.38655569217906 0.5 L 97.55045513435812 0.5 L 97.55045513435812 3.5 L 104.55045513435812 0 L 97.55045513435812 -3.5 L 97.55045513435812 -0.5 L 85.38655569217906 -0.5 Z"/><text text-anchor="middle" pointer-events="none" font-size="8px" fill="#000000" x="61.27522756717906" y="3" transform="rotate(180 61.27522756717906 0)" font-family="Helvetica Neue, Helvetica, Arial, sans-serif">MENTIONS</text></g><g class="relationship" transform="translate(360.3945951614748 -126.87599624687475) rotate(203.44182913590942)"><path class="b-outline" fill="#A5ABB6" stroke="none" d="M 25 0.5 L 43.132178348075556 0.5 L 43.132178348075556 -0.5 L 25 -0.5 Z M 91.35483459807556 0.5 L 109.48701294615111 0.5 L 109.48701294615111 3.5 L 116.48701294615111 0 L 109.48701294615111 -3.5 L 109.48701294615111 -0.5 L 91.35483459807556 -0.5 Z"/><text text-anchor="middle" pointer-events="none" font-size="8px" fill="#000000" x="67.24350647307556" y="3" transform="rotate(180 67.24350647307556 0)" font-family="Helvetica Neue, Helvetica, Arial, sans-serif">MENTIONS</text></g><g class="relationship" transform="translate(360.3945951614748 -126.87599624687475) rotate(471.7506287128073)"><path class="b-outline" fill="#A5ABB6" stroke="none" d="M 25 0.5 L 86.11341229375775 0.5 L 86.11341229375775 -0.5 L 25 -0.5 Z M 134.33606854375773 0.5 L 195.4494808375155 0.5 L 195.4494808375155 3.5 L 202.4494808375155 0 L 195.4494808375155 -3.5 L 195.4494808375155 -0.5 L 134.33606854375773 -0.5 Z"/><text text-anchor="middle" pointer-events="none" font-size="8px" fill="#000000" x="110.22474041875775" y="3" transform="rotate(180 110.22474041875775 0)" font-family="Helvetica Neue, Helvetica, Arial, sans-serif">MENTIONS</text></g><g class="relationship" transform="translate(360.3945951614748 -126.87599624687475) rotate(228.72613040537095)"><path class="b-outline" fill="#A5ABB6" stroke="none" d="M 25 0.5 L 76.07188113659026 0.5 L 76.07188113659026 -0.5 L 25 -0.5 Z M 124.29453738659026 0.5 L 175.36641852318053 0.5 L 175.36641852318053 3.5 L 182.36641852318053 0 L 175.36641852318053 -3.5 L 175.36641852318053 -0.5 L 124.29453738659026 -0.5 Z"/><text text-anchor="middle" pointer-events="none" font-size="8px" fill="#000000" x="100.18320926159026" y="3" transform="rotate(180 100.18320926159026 0)" font-family="Helvetica Neue, Helvetica, Arial, sans-serif">MENTIONS</text></g><g class="relationship" transform="translate(360.3945951614748 -126.87599624687475) rotate(247.07057631612065)"><path class="b-outline" fill="#A5ABB6" stroke="none" d="M 25 0.5 L 33.514735334318694 0.5 L 33.514735334318694 -0.5 L 25 -0.5 Z M 81.73739158431869 0.5 L 90.25212691863739 0.5 L 90.25212691863739 3.5 L 97.25212691863739 0 L 90.25212691863739 -3.5 L 90.25212691863739 -0.5 L 81.73739158431869 -0.5 Z"/><text text-anchor="middle" pointer-events="none" font-size="8px" fill="#000000" x="57.626063459318694" y="3" transform="rotate(180 57.626063459318694 0)" font-family="Helvetica Neue, Helvetica, Arial, sans-serif">MENTIONS</text></g><g class="relationship" transform="translate(360.3945951614748 -126.87599624687475) rotate(526.6965220988861)"><path class="b-outline" fill="#A5ABB6" stroke="none" d="M 25 0.5 L 54.922911316290666 0.5 L 54.922911316290666 -0.5 L 25 -0.5 Z M 103.14556756629067 0.5 L 133.06847888258133 0.5 L 133.06847888258133 3.5 L 140.06847888258133 0 L 133.06847888258133 -3.5 L 133.06847888258133 -0.5 L 103.14556756629067 -0.5 Z"/><text text-anchor="middle" pointer-events="none" font-size="8px" fill="#000000" x="79.03423944129067" y="3" transform="rotate(180 79.03423944129067 0)" font-family="Helvetica Neue, Helvetica, Arial, sans-serif">MENTIONS</text></g><g class="relationship" transform="translate(199.75574429817325 -88.89228508107153) rotate(306.8888118230341)"><path class="b-outline" fill="#A5ABB6" stroke="none" d="M 25 0.5 L 69.18808730092488 0.5 L 69.18808730092488 -0.5 L 25 -0.5 Z M 112.07871230092488 0.5 L 156.26679960184975 0.5 L 156.26679960184975 3.5 L 163.26679960184975 0 L 156.26679960184975 -3.5 L 156.26679960184975 -0.5 L 112.07871230092488 -0.5 Z"/><text text-anchor="middle" pointer-events="none" font-size="8px" fill="#000000" x="90.63339980092488" y="3" font-family="Helvetica Neue, Helvetica, Arial, sans-serif">MARRIED</text></g><g class="relationship" transform="translate(199.75574429817325 -88.89228508107153) rotate(426.2190736904468)"><path class="b-outline" fill="#A5ABB6" stroke="none" d="M 25 0.5 L 58.61031402540104 0.5 L 58.61031402540104 -0.5 L 25 -0.5 Z M 123.73922027540104 0.5 L 157.34953430080208 0.5 L 157.34953430080208 3.5 L 164.34953430080208 0 L 157.34953430080208 -3.5 L 157.34953430080208 -0.5 L 123.73922027540104 -0.5 Z"/><text text-anchor="middle" pointer-events="none" font-size="8px" fill="#000000" x="91.17476715040104" y="3" font-family="Helvetica Neue, Helvetica, Arial, sans-serif">ASKED_ABOUT</text></g><g class="relationship" transform="translate(199.75574429817325 -88.89228508107153) rotate(277.01398421656023)"><path class="b-outline" fill="#A5ABB6" stroke="none" d="M 25 0.5 L 53.147288096158576 0.5 L 53.147288096158576 -0.5 L 25 -0.5 Z M 135.14728809615858 0.5 L 163.29457619231715 0.5 L 163.29457619231715 3.5 L 170.29457619231715 0 L 163.29457619231715 -3.5 L 163.29457619231715 -0.5 L 135.14728809615858 -0.5 Z"/><text text-anchor="middle" pointer-events="none" font-size="8px" fill="#000000" x="94.14728809615858" y="3" font-family="Helvetica Neue, Helvetica, Arial, sans-serif">INTERACTED_WITH</text></g><g class="relationship" transform="translate(199.75574429817325 -88.89228508107153) rotate(394.5644091354829)"><path class="b-outline" fill="#A5ABB6" stroke="none" d="M 17.324116139070416,18.03122292025696 L 18.031222920256962,17.324116139070412 A 80.94189632423264 80.94189632423264 0 0 0 46.53816993944895,35.76196884801446 L 46.183253412182324,36.696866841740515 A 81.94189632423264 81.94189632423264 0 0 1 17.324116139070416,18.03122292025696 Z M 99.49885543760247,38.36619481097266 L 99.20312065684398,37.4109247237985 A 80.94189632423264 80.94189632423264 0 0 0 128.8076886261525,20.79256150047456 L 126.82323171207959,18.54268800265558 L 134.38813627340895,16.537140950607593 L 131.4536311782497,23.792392830899864 L 129.46917426417681,21.542519333080886 A 81.94189632423264 81.94189632423264 0 0 1 99.49885543760247,38.36619481097266"/><text text-anchor="middle" pointer-events="none" font-size="8px" fill="#000000" x="72.71706475614197" y="44.49155782896102" font-family="Helvetica Neue, Helvetica, Arial, sans-serif">MENTIONED</text></g><g class="relationship" transform="translate(199.75574429817325 -88.89228508107153) rotate(462.312139333743)"><path class="b-outline" fill="#A5ABB6" stroke="none" d="M 19.529452792776517,-15.615712395363635 L 20.13821422178524,-14.822359055072399 A 127.57626469696183 127.57626469696183 0 0 1 72.38733962522973,-38.62855147405675 L 72.18813028279098,-39.60850843121615 A 128.57626469696183 128.57626469696183 0 0 0 19.529452792776517,-15.615712395363635 Z M 118.10980277497185,-40.571651106813675 L 117.95185698772619,-39.584203321717496 A 127.57626469696183 127.57626469696183 0 0 1 171.15319859207509,-17.989686554446312 L 169.4283132772399,-15.535145731671943 L 177.16794139768783,-14.374044290293249 L 173.45304567852202,-21.262407651478807 L 171.72816036368684,-18.807866828704437 A 128.57626469696183 128.57626469696183 0 0 0 118.10980277497185,-40.571651106813675"/><text text-anchor="middle" pointer-events="none" font-size="8px" fill="#000000" x="95.11609402885078" y="-38.65740745436534" transform="rotate(180 95.11609402885078 -41.65740745436534)" font-family="Helvetica Neue, Helvetica, Arial, sans-serif">INTERACT</text></g><g class="relationship" transform="translate(199.75574429817325 -88.89228508107153) rotate(197.77789944568082)"><path class="b-outline" fill="#A5ABB6" stroke="none" d="M 24.018736134675446,6.953439040707552 L 24.277555179777966,5.987513214418485 A 321.2694705274276 321.2694705274276 0 0 0 91.84788730255684,16.556489838143932 L 91.7993911742626,17.55531320868573 A 322.2694705274276 322.2694705274276 0 0 1 24.018736134675446,6.953439040707552 Z M 117.83576250421505,17.76640751745026 L 117.80346794734965,16.766929122687827 A 321.2694705274276 321.2694705274276 0 0 0 185.5362855614351,7.294945797506263 L 184.8069158581366,4.3849595714374505 L 192.44781503947877,6.078080860821148 L 186.50877849916648,11.17492743226468 L 185.77940879586797,8.264941206195868 A 322.2694705274276 322.2694705274276 0 0 1 117.83576250421505,17.76640751745026"/><text text-anchor="middle" pointer-events="none" font-size="8px" fill="#000000" x="104.81949779379313" y="20.42392983482773" transform="rotate(180 104.81949779379313 17.42392983482773)" font-family="Helvetica Neue, Helvetica, Arial, sans-serif">VISIT</text></g><g class="relationship" transform="translate(199.75574429817325 -88.89228508107153) rotate(523.0597297070331)"><path class="b-outline" fill="#A5ABB6" stroke="none" d="M 25 0.5 L 28.66350336114865 0.5 L 28.66350336114865 -0.5 L 25 -0.5 Z M 80.44475336114866 0.5 L 84.1082567222973 0.5 L 84.1082567222973 3.5 L 91.1082567222973 0 L 84.1082567222973 -3.5 L 84.1082567222973 -0.5 L 80.44475336114866 -0.5 Z"/><text text-anchor="middle" pointer-events="none" font-size="8px" fill="#000000" x="54.55412836114865" y="3" transform="rotate(180 54.55412836114865 0)" font-family="Helvetica Neue, Helvetica, Arial, sans-serif">CONCERNS</text></g><g class="relationship" transform="translate(199.75574429817325 -88.89228508107153) rotate(462.312139333743)"><path class="b-outline" fill="#A5ABB6" stroke="none" d="M 13.473521019338785,-21.06452542407343 L 14.30499063164133,-20.50895519105383 A 100.42066668370235 100.42066668370235 0 0 1 43.26945401909111,-49.04225114216884 L 42.726415706280726,-49.881959062114845 A 101.42066668370235 101.42066668370235 0 0 0 13.473521019338785,-21.06452542407343 Z M 147.86972092020264,-52.91883003532291 L 147.37605430243087,-52.04917880034547 A 100.42066668370235 100.42066668370235 0 0 1 177.9391211638218,-25.235226067057695 L 175.5450702064647,-23.427321198548984 L 182.55657434990164,-19.95042464464255 L 181.1311891069646,-27.645765891735973 L 178.7371381496075,-25.837861023227262 A 101.42066668370235 101.42066668370235 0 0 0 147.86972092020264,-52.91883003532291"/><text text-anchor="middle" pointer-events="none" font-size="8px" fill="#000000" x="94.88803070175071" y="-62.59681912998475" transform="rotate(180 94.88803070175071 -65.59681912998475)" font-family="Helvetica Neue, Helvetica, Arial, sans-serif">ASK_TO_COME_TO_TOWN</text></g><g class="relationship" transform="translate(199.75574429817325 -88.89228508107153) rotate(462.312139333743)"><path class="b-outline" fill="#A5ABB6" stroke="none" d="M 5.987513214418485,-24.277555179777966 L 6.953439040707552,-24.018736134675446 A 94.05306485552622 94.05306485552622 0 0 1 79.58597741097252,-91.9482480757726 L 79.39230221236726,-92.92931378073084 A 95.05306485552622 95.05306485552622 0 0 0 5.987513214418485,-24.277555179777966 Z M 109.85293911940977,-93.96203048703883 L 109.72615503610402,-92.9701001486479 A 94.05306485552622 94.05306485552622 0 0 1 186.79269593232235,-30.115883926062338 L 183.9541609209631,-29.14494675544434 L 189.53130516565756,-23.65445842799373 L 190.57740928080136,-31.41046682021967 L 187.7388742694421,-30.439529649601674 A 95.05306485552622 95.05306485552622 0 0 0 109.85293911940977,-93.96203048703883"/><text text-anchor="middle" pointer-events="none" font-size="8px" fill="#000000" x="94.59790141935044" y="-91.17478205223176" transform="rotate(180 94.59790141935044 -94.17478205223176)" font-family="Helvetica Neue, Helvetica, Arial, sans-serif">AIDED</text></g><g class="relationship" transform="translate(199.75574429817325 -88.89228508107153) rotate(197.77789944568082)"><path class="b-outline" fill="#A5ABB6" stroke="none" d="M 24.018736134675446,-6.953439040707552 L 24.277555179777966,-5.987513214418485 A 321.2694705274276 321.2694705274276 0 0 1 89.25590818328915,-16.420143573525763 L 89.19934412648925,-17.418542545619744 A 322.2694705274276 322.2694705274276 0 0 0 24.018736134675446,-6.953439040707552 Z M 120.43768538688794,-17.671812710334507 L 120.39731708081378,-16.67262784262249 A 321.2694705274276 321.2694705274276 0 0 1 185.5362855614351,-7.294945797506263 L 184.8069158581366,-4.3849595714374505 L 192.44781503947877,-6.078080860821148 L 186.50877849916648,-11.17492743226468 L 185.77940879586797,-8.264941206195868 A 322.2694705274276 322.2694705274276 0 0 0 120.43768538688794,-17.671812710334507"/><text text-anchor="middle" pointer-events="none" font-size="8px" fill="#000000" x="104.8194977937931" y="-14.423929834827732" transform="rotate(180 104.8194977937931 -17.42392983482773)" font-family="Helvetica Neue, Helvetica, Arial, sans-serif">LEAVE</text></g><g class="relationship" transform="translate(199.75574429817325 -88.89228508107153) rotate(394.5644091354829)"><path class="b-outline" fill="#A5ABB6" stroke="none" d="M 24.018736134675446,6.953439040707552 L 24.277555179777966,5.987513214418485 A 197.0033986225607 197.0033986225607 0 0 0 41.53310866286343,9.790751594568832 L 41.36187974871162,10.775982866381923 A 198.0033986225607 198.0033986225607 0 0 1 24.018736134675446,6.953439040707552 Z M 104.74086214454205,11.494099476437356 L 104.59200068228246,10.505241415311332 A 197.0033986225607 197.0033986225607 0 0 0 121.92929842512662,7.093957909087036 L 121.21869883052811,4.179331309305094 L 128.84852709038424,5.921663288320855 L 122.87676455125795,10.980126708796291 L 122.16616495665944,8.06550010901435 A 198.0033986225607 198.0033986225607 0 0 1 104.74086214454205,11.494099476437356"/><text text-anchor="middle" pointer-events="none" font-size="8px" fill="#000000" x="73.02811479525364" y="16.18756465831524" font-family="Helvetica Neue, Helvetica, Arial, sans-serif">PATTED_HAND</text></g><g class="relationship" transform="translate(199.75574429817325 -88.89228508107153) rotate(394.5644091354829)"><path class="b-outline" fill="#A5ABB6" stroke="none" d="M 24.018736134675446,-6.953439040707552 L 24.277555179777966,-5.987513214418485 A 197.0033986225607 197.0033986225607 0 0 1 24.508860323182383,-6.049340616764425 L 24.251215395607893,-7.01558028232111 A 198.0033986225607 198.0033986225607 0 0 0 24.018736134675446,-6.953439040707552 Z M 121.93233737574656,-8.122357853230938 L 121.69665177132174,-7.150528497908255 A 197.0033986225607 197.0033986225607 0 0 1 121.92929842512662,-7.093957909087036 L 121.21869883052811,-4.179331309305094 L 128.84852709038424,-5.921663288320855 L 122.87676455125795,-10.980126708796291 L 122.16616495665944,-8.06550010901435 A 198.0033986225607 198.0033986225607 0 0 0 121.93233737574656,-8.122357853230938"/><text text-anchor="middle" pointer-events="none" font-size="8px" fill="#000000" x="73.02811479525359" y="-10.187564658315239" font-family="Helvetica Neue, Helvetica, Arial, sans-serif">ANSWERED_QUESTION</text></g><g class="relationship" transform="translate(199.75574429817325 -88.89228508107153) rotate(394.5644091354829)"><path class="b-outline" fill="#A5ABB6" stroke="none" d="M 17.324116139070416,-18.03122292025696 L 18.031222920256962,-17.324116139070412 A 80.94189632423264 80.94189632423264 0 0 1 25.500569086395203,-23.925386324066444 L 24.88574265080642,-24.714048770301332 A 81.94189632423264 81.94189632423264 0 0 0 17.324116139070416,-18.03122292025696 Z M 121.50428626140675,-27.739205217353174 L 120.94000227919052,-26.913624459695754 A 80.94189632423264 80.94189632423264 0 0 1 128.8076886261525,-20.79256150047456 L 126.82323171207959,-18.54268800265558 L 134.38813627340895,-16.537140950607593 L 131.4536311782497,-23.792392830899864 L 129.46917426417681,-21.542519333080886 A 81.94189632423264 81.94189632423264 0 0 0 121.50428626140675,-27.739205217353174"/><text text-anchor="middle" pointer-events="none" font-size="8px" fill="#000000" x="72.71706475614195" y="-38.49155782896102" font-family="Helvetica Neue, Helvetica, Arial, sans-serif">PUT_MARK_ON_THROAT</text></g><g class="relationship" transform="translate(223.60347573602064 -282.7253503599477) rotate(445.9887346440531)"><path class="b-outline" fill="#A5ABB6" stroke="none" d="M 25 0.5 L 26.96054057793841 0.5 L 26.96054057793841 -0.5 L 25 -0.5 Z M 65.84725932793842 0.5 L 67.80779990587682 0.5 L 67.80779990587682 3.5 L 74.80779990587682 0 L 67.80779990587682 -3.5 L 67.80779990587682 -0.5 L 65.84725932793842 -0.5 Z"/><text text-anchor="middle" pointer-events="none" font-size="8px" fill="#000000" x="46.40389995293841" y="3" font-family="Helvetica Neue, Helvetica, Arial, sans-serif">MENTI…</text></g><g class="relationship" transform="translate(325.86243794918414 -2.012668789270215) rotate(192.60766116787119)"><path class="b-outline" fill="#A5ABB6" stroke="none" d="M 21.40063509461097,-12.933012701892217 L 21.90063509461097,-12.06698729810778 A 197.5941172582998 197.5941172582998 0 0 1 99.8945663482551,-37.44142916296613 L 99.78928422921149,-38.43587155717995 A 198.5941172582998 198.5941172582998 0 0 0 21.40063509461097,-12.933012701892217 Z M 136.04921853929324,-38.94534619342255 L 135.9719175344726,-37.948338392724025 A 197.5941172582998 197.5941172582998 0 0 1 214.6479723920604,-14.775207305253643 L 213.22155929881808,-12.13601316926689 L 221.04382755823656,-11.886775777019338 L 216.5498565163835,-18.294132819902643 L 215.12344342314117,-15.654938683915892 A 198.5941172582998 198.5941172582998 0 0 0 136.04921853929324,-38.94534619342255"/><text text-anchor="middle" pointer-events="none" font-size="8px" fill="#000000" x="117.91462283500232" y="-36.02002839850945" transform="rotate(180 117.91462283500232 -39.02002839850945)" font-family="Helvetica Neue, Helvetica, Arial, sans-serif">KNOWS</text></g><g class="relationship" transform="translate(325.86243794918414 -2.012668789270215) rotate(192.60766116787119)"><path class="b-outline" fill="#A5ABB6" stroke="none" d="M 25 0.5 L 100.79394663739636 0.5 L 100.79394663739636 -0.5 L 25 -0.5 Z M 135.24316538739635 0.5 L 211.03711202479272 0.5 L 211.03711202479272 3.5 L 218.03711202479272 0 L 211.03711202479272 -3.5 L 211.03711202479272 -0.5 L 135.24316538739635 -0.5 Z"/><text text-anchor="middle" pointer-events="none" font-size="8px" fill="#000000" x="118.01855601239636" y="3" transform="rotate(180 118.01855601239636 0)" font-family="Helvetica Neue, Helvetica, Arial, sans-serif">ENEMY</text></g><g class="relationship" transform="translate(325.86243794918414 -2.012668789270215) rotate(192.60766116787119)"><path class="b-outline" fill="#A5ABB6" stroke="none" d="M 21.40063509461097,12.933012701892217 L 21.90063509461097,12.06698729810778 A 197.5941172582998 197.5941172582998 0 0 0 94.02291509217609,36.73078168639739 L 93.8879172541751,37.72162757942772 A 198.5941172582998 198.5941172582998 0 0 1 21.40063509461097,12.933012701892217 Z M 141.96832306156065,38.397187194335885 L 141.86121702221038,37.40293959120339 A 197.5941172582998 197.5941172582998 0 0 0 214.6479723920604,14.775207305253643 L 213.22155929881808,12.13601316926689 L 221.04382755823656,11.886775777019338 L 216.5498565163835,18.294132819902643 L 215.12344342314117,15.654938683915892 A 198.5941172582998 198.5941172582998 0 0 1 141.96832306156065,38.397187194335885"/><text text-anchor="middle" pointer-events="none" font-size="8px" fill="#000000" x="117.91462283500235" y="42.02002839850948" transform="rotate(180 117.91462283500235 39.02002839850948)" font-family="Helvetica Neue, Helvetica, Arial, sans-serif">CAMPAIGN</text></g><g class="relationship" transform="translate(325.86243794918414 -2.012668789270215) rotate(526.5090075682535)"><path class="b-outline" fill="#A5ABB6" stroke="none" d="M 5.987513214418485,-24.277555179777966 L 6.953439040707552,-24.018736134675446 A 128.9728638239395 128.9728638239395 0 0 1 104.22498833251558,-116.68708257873705 L 104.01326417631266,-117.66441204298141 A 129.9728638239395 129.9728638239395 0 0 0 5.987513214418485,-24.277555179777966 Z M 152.57026947247348,-118.8969121357853 L 152.40840021950189,-117.91009992216894 A 128.9728638239395 128.9728638239395 0 0 1 254.25597825603478,-30.29590254299193 L 251.40132382287774,-29.37343407889308 L 256.88418041112493,-23.78878694297532 L 258.0621841669108,-31.525860495123727 L 255.2075297337538,-30.603392031024878 A 129.9728638239395 129.9728638239395 0 0 0 152.57026947247348,-118.8969121357853"/><text text-anchor="middle" pointer-events="none" font-size="8px" fill="#000000" x="128.2463671933826" y="-117.06927868770256" transform="rotate(180 128.2463671933826 -120.06927868770256)" font-family="Helvetica Neue, Helvetica, Arial, sans-serif">MARRIAGE</text></g><g class="relationship" transform="translate(-304.8015818325399 -18.108902272204805) rotate(266.12423349444197)"><path class="b-outline" fill="#A5ABB6" stroke="none" d="M 25 0.5 L 68.04221376364683 0.5 L 68.04221376364683 -0.5 L 25 -0.5 Z M 116.26487001364683 0.5 L 159.30708377729366 0.5 L 159.30708377729366 3.5 L 166.30708377729366 0 L 159.30708377729366 -3.5 L 159.30708377729366 -0.5 L 116.26487001364683 -0.5 Z"/><text text-anchor="middle" pointer-events="none" font-size="8px" fill="#000000" x="92.15354188864683" y="3" transform="rotate(180 92.15354188864683 0)" font-family="Helvetica Neue, Helvetica, Arial, sans-serif">MENTIONS</text></g><g class="relationship" transform="translate(-304.8015818325399 -18.108902272204805) rotate(235.083506204466)"><path class="b-outline" fill="#A5ABB6" stroke="none" d="M 25 0.5 L 48.840712401718676 0.5 L 48.840712401718676 -0.5 L 25 -0.5 Z M 97.06336865171868 0.5 L 120.90408105343735 0.5 L 120.90408105343735 3.5 L 127.90408105343735 0 L 120.90408105343735 -3.5 L 120.90408105343735 -0.5 L 97.06336865171868 -0.5 Z"/><text text-anchor="middle" pointer-events="none" font-size="8px" fill="#000000" x="72.95204052671868" y="3" transform="rotate(180 72.95204052671868 0)" font-family="Helvetica Neue, Helvetica, Arial, sans-serif">MENTIONS</text></g><g class="relationship" transform="translate(-304.8015818325399 -18.108902272204805) rotate(376.18602659382714)"><path class="b-outline" fill="#A5ABB6" stroke="none" d="M 25 0.5 L 55.36710926196167 0.5 L 55.36710926196167 -0.5 L 25 -0.5 Z M 103.58976551196167 0.5 L 133.95687477392335 0.5 L 133.95687477392335 3.5 L 140.95687477392335 0 L 133.95687477392335 -3.5 L 133.95687477392335 -0.5 L 103.58976551196167 -0.5 Z"/><text text-anchor="middle" pointer-events="none" font-size="8px" fill="#000000" x="79.47843738696167" y="3" font-family="Helvetica Neue, Helvetica, Arial, sans-serif">MENTIONS</text></g><g class="relationship" transform="translate(-304.8015818325399 -18.108902272204805) rotate(305.97754262705814)"><path class="b-outline" fill="#A5ABB6" stroke="none" d="M 25 0.5 L 36.37156053157607 0.5 L 36.37156053157607 -0.5 L 25 -0.5 Z M 84.59421678157608 0.5 L 95.96577731315215 0.5 L 95.96577731315215 3.5 L 102.96577731315215 0 L 95.96577731315215 -3.5 L 95.96577731315215 -0.5 L 84.59421678157608 -0.5 Z"/><text text-anchor="middle" pointer-events="none" font-size="8px" fill="#000000" x="60.48288865657607" y="3" font-family="Helvetica Neue, Helvetica, Arial, sans-serif">MENTIONS</text></g><g class="relationship" transform="translate(-304.8015818325399 -18.108902272204805) rotate(194.78048911391141)"><path class="b-outline" fill="#A5ABB6" stroke="none" d="M 25 0.5 L 27.606091834634213 0.5 L 27.606091834634213 -0.5 L 25 -0.5 Z M 75.82874808463421 0.5 L 78.43483991926843 0.5 L 78.43483991926843 3.5 L 85.43483991926843 0 L 78.43483991926843 -3.5 L 78.43483991926843 -0.5 L 75.82874808463421 -0.5 Z"/><text text-anchor="middle" pointer-events="none" font-size="8px" fill="#000000" x="51.71741995963421" y="3" transform="rotate(180 51.71741995963421 0)" font-family="Helvetica Neue, Helvetica, Arial, sans-serif">MENTIONS</text></g><g class="relationship" transform="translate(-411.5821681592282 -46.28265338424364) rotate(337.49639786372006)"><path class="b-outline" fill="#A5ABB6" stroke="none" d="M 25 0.5 L 75.0879865905175 0.5 L 75.0879865905175 -0.5 L 25 -0.5 Z M 114.8653303405175 0.5 L 164.953316931035 0.5 L 164.953316931035 3.5 L 171.953316931035 0 L 164.953316931035 -3.5 L 164.953316931035 -0.5 L 114.8653303405175 -0.5 Z"/><text text-anchor="middle" pointer-events="none" font-size="8px" fill="#000000" x="94.9766584655175" y="3" font-family="Helvetica Neue, Helvetica, Arial, sans-serif">AUTHOR</text></g><g class="relationship" transform="translate(-229.6257686414753 -121.664864314095) rotate(351.4851785139417)"><path class="b-outline" fill="#A5ABB6" stroke="none" d="M 25 0.5 L 54.92084520406925 0.5 L 54.92084520406925 -0.5 L 25 -0.5 Z M 163.59662645406925 0.5 L 193.5174716581385 0.5 L 193.5174716581385 3.5 L 200.5174716581385 0 L 193.5174716581385 -3.5 L 193.5174716581385 -0.5 L 163.59662645406925 -0.5 Z"/><text text-anchor="middle" pointer-events="none" font-size="8px" fill="#000000" x="109.25873582906925" y="3" font-family="Helvetica Neue, Helvetica, Arial, sans-serif">TRUSTS_JOURNEY_FROM</text></g><g class="relationship" transform="translate(-229.6257686414753 -121.664864314095) rotate(224.74089505469254)"><path class="b-outline" fill="#A5ABB6" stroke="none" d="M 25 0.5 L 35.14809504306421 0.5 L 35.14809504306421 -0.5 L 25 -0.5 Z M 81.89418879306422 0.5 L 92.04228383612842 0.5 L 92.04228383612842 3.5 L 99.04228383612842 0 L 92.04228383612842 -3.5 L 92.04228383612842 -0.5 L 81.89418879306422 -0.5 Z"/><text text-anchor="middle" pointer-events="none" font-size="8px" fill="#000000" x="58.52114191806421" y="3" transform="rotate(180 58.52114191806421 0)" font-family="Helvetica Neue, Helvetica, Arial, sans-serif">CONTAINS</text></g><g class="relationship" transform="translate(-229.6257686414753 -121.664864314095) rotate(187.639864286585)"><path class="b-outline" fill="#A5ABB6" stroke="none" d="M 25 0.5 L 55.2031953027751 0.5 L 55.2031953027751 -0.5 L 25 -0.5 Z M 101.9492890527751 0.5 L 132.1524843555502 0.5 L 132.1524843555502 3.5 L 139.1524843555502 0 L 132.1524843555502 -3.5 L 132.1524843555502 -0.5 L 101.9492890527751 -0.5 Z"/><text text-anchor="middle" pointer-events="none" font-size="8px" fill="#000000" x="78.5762421777751" y="3" transform="rotate(180 78.5762421777751 0)" font-family="Helvetica Neue, Helvetica, Arial, sans-serif">CONTAINS</text></g><g class="relationship" transform="translate(-229.6257686414753 -121.664864314095) rotate(420.66246433327444)"><path class="b-outline" fill="#A5ABB6" stroke="none" d="M 25 0.5 L 59.0563176316022 0.5 L 59.0563176316022 -0.5 L 25 -0.5 Z M 105.8024113816022 0.5 L 139.8587290132044 0.5 L 139.8587290132044 3.5 L 146.8587290132044 0 L 139.8587290132044 -3.5 L 139.8587290132044 -0.5 L 105.8024113816022 -0.5 Z"/><text text-anchor="middle" pointer-events="none" font-size="8px" fill="#000000" x="82.4293645066022" y="3" font-family="Helvetica Neue, Helvetica, Arial, sans-serif">CONTAINS</text></g><g class="relationship" transform="translate(-71.1988475115764 -55.508449834160544) rotate(302.98289802674617)"><path class="b-outline" fill="#A5ABB6" stroke="none" d="M 25 0.5 L 31.725693297705917 0.5 L 31.725693297705917 -0.5 L 25 -0.5 Z M 79.94834954770592 0.5 L 86.67404284541183 0.5 L 86.67404284541183 3.5 L 93.67404284541183 0 L 86.67404284541183 -3.5 L 86.67404284541183 -0.5 L 79.94834954770592 -0.5 Z"/><text text-anchor="middle" pointer-events="none" font-size="8px" fill="#000000" x="55.83702142270592" y="3" font-family="Helvetica Neue, Helvetica, Arial, sans-serif">MENTIONS</text></g><g class="relationship" transform="translate(-71.1988475115764 -55.508449834160544) rotate(431.7076344770344)"><path class="b-outline" fill="#A5ABB6" stroke="none" d="M 25 0.5 L 36.47126924942084 0.5 L 36.47126924942084 -0.5 L 25 -0.5 Z M 84.69392549942084 0.5 L 96.16519474884169 0.5 L 96.16519474884169 3.5 L 103.16519474884169 0 L 96.16519474884169 -3.5 L 96.16519474884169 -0.5 L 84.69392549942084 -0.5 Z"/><text text-anchor="middle" pointer-events="none" font-size="8px" fill="#000000" x="60.58259737442084" y="3" font-family="Helvetica Neue, Helvetica, Arial, sans-serif">MENTIONS</text></g><g class="relationship" transform="translate(-71.1988475115764 -55.508449834160544) rotate(399.49611562363384)"><path class="b-outline" fill="#A5ABB6" stroke="none" d="M 25 0.5 L 62.965412131196146 0.5 L 62.965412131196146 -0.5 L 25 -0.5 Z M 111.18806838119615 0.5 L 149.1534805123923 0.5 L 149.1534805123923 3.5 L 156.1534805123923 0 L 149.1534805123923 -3.5 L 149.1534805123923 -0.5 L 111.18806838119615 -0.5 Z"/><text text-anchor="middle" pointer-events="none" font-size="8px" fill="#000000" x="87.07674025619615" y="3" font-family="Helvetica Neue, Helvetica, Arial, sans-serif">MENTIONS</text></g><g class="relationship" transform="translate(-71.1988475115764 -55.508449834160544) rotate(360.1602440544314)"><path class="b-outline" fill="#A5ABB6" stroke="none" d="M 25 0.5 L 52.33117713602908 0.5 L 52.33117713602908 -0.5 L 25 -0.5 Z M 100.55383338602908 0.5 L 127.88501052205817 0.5 L 127.88501052205817 3.5 L 134.88501052205817 0 L 127.88501052205817 -3.5 L 127.88501052205817 -0.5 L 100.55383338602908 -0.5 Z"/><text text-anchor="middle" pointer-events="none" font-size="8px" fill="#000000" x="76.44250526102908" y="3" font-family="Helvetica Neue, Helvetica, Arial, sans-serif">MENTIONS</text></g><g class="relationship" transform="translate(88.68553769950007 -55.06128620106574) rotate(459.9306749830328)"><path class="b-outline" fill="#A5ABB6" stroke="none" d="M 5.987513214418485,-24.277555179777966 L 6.953439040707552,-24.018736134675446 A 51.34225783127117 51.34225783127117 0 0 1 36.45152249852423,-57.97685583774939 L 36.060134776008425,-58.897081707122716 A 52.34225783127117 52.34225783127117 0 0 0 5.987513214418485,-24.277555179777966 Z M 71.41229943081501,-60.917158977896925 L 71.12828326134039,-59.95833948733733 A 51.34225783127117 51.34225783127117 0 0 1 104.30257042902898,-29.581415805562912 L 101.51210188013606,-28.479923509793473 L 107.33779721063983,-23.253904574107672 L 108.0231951608862,-31.05007219992217 L 105.23272661199329,-29.94857990415273 A 52.34225783127117 52.34225783127117 0 0 0 71.41229943081501,-60.917158977896925"/><text text-anchor="middle" pointer-events="none" font-size="8px" fill="#000000" x="53.58872965578683" y="-59.488209991102266" transform="rotate(180 53.58872965578683 -62.488209991102266)" font-family="Helvetica Neue, Helvetica, Arial, sans-serif">FRIEND</text></g><g class="relationship" transform="translate(88.68553769950007 -55.06128620106574) rotate(494.62331151633725)"><path class="b-outline" fill="#A5ABB6" stroke="none" d="M 24.018736134675446,-6.953439040707552 L 24.277555179777966,-5.987513214418485 A 230.75527770079023 230.75527770079023 0 0 1 63.81679383129604,-12.965819032383735 L 63.72932184722493,-13.961986012363838 A 231.75527770079023 231.75527770079023 0 0 0 24.018736134675446,-6.953439040707552 Z M 99.54639940864867,-14.328381092378265 L 99.47932441576737,-13.330633155607671 A 230.75527770079023 230.75527770079023 0 0 1 139.15304464633746,-7.162645777442813 L 138.43603011835964,-4.2495906515193855 L 146.06967569482174,-5.975121066481815 L 140.10906401697454,-11.046719278674049 L 139.39204948899672,-8.133664152750622 A 231.75527770079023 231.75527770079023 0 0 0 99.54639940864867,-14.328381092378265"/><text text-anchor="middle" pointer-events="none" font-size="8px" fill="#000000" x="81.6358860437316" y="-11.338209713165242" transform="rotate(180 81.6358860437316 -14.338209713165242)" font-family="Helvetica Neue, Helvetica, Arial, sans-serif">FRIEND</text></g><g class="relationship" transform="translate(88.68553769950007 -55.06128620106574) rotate(226.3832542936285)"><path class="b-outline" fill="#A5ABB6" stroke="none" d="M 12.066987298107785,-21.900635094610966 L 12.933012701892222,-21.400635094610966 A 63.142102028330726 63.142102028330726 0 0 1 32.705222811005015,-42.4431301443543 L 32.15233570122671,-43.27638631375301 A 64.14210202833073 64.14210202833073 0 0 0 12.066987298107785,-21.900635094610966 Z M 98.38198589774154,-46.111406154643916 L 97.90232732999804,-45.23395093733066 A 63.142102028330726 63.142102028330726 0 0 1 119.40040194735172,-25.958067604417792 L 116.94001229399454,-24.241535416064508 L 123.81570866240224,-20.503247111309904 L 122.6809214851613,-28.246777188888835 L 120.22053183180412,-26.53024500053555 A 64.14210202833073 64.14210202833073 0 0 0 98.38198589774154,-46.111406154643916"/><text text-anchor="middle" pointer-events="none" font-size="8px" fill="#000000" x="64.89391206151268" y="-50.413458967266095" transform="rotate(180 64.89391206151268 -53.413458967266095)" font-family="Helvetica Neue, Helvetica, Arial, sans-serif">INTERESTED_IN</text></g><g class="relationship" transform="translate(88.68553769950007 -55.06128620106574) rotate(226.3832542936285)"><path class="b-outline" fill="#A5ABB6" stroke="none" d="M 21.40063509461097,-12.933012701892217 L 21.90063509461097,-12.06698729810778 A 91.4300840243291 91.4300840243291 0 0 1 34.65982129967489,-18.170277389329257 L 34.299372590053984,-19.10305642411329 A 92.4300840243291 92.4300840243291 0 0 0 21.40063509461097,-12.933012701892217 Z M 96.70940856760585,-20.61804885739363 L 96.39464382658092,-19.668879137160474 A 91.4300840243291 91.4300840243291 0 0 1 109.43493979554296,-14.191866849884828 L 108.06276793980105,-11.524069181711734 L 115.8884963305705,-11.434765464515891 L 111.2645022698655,-17.748930407448956 L 109.89233041412359,-15.081132739275862 A 92.4300840243291 92.4300840243291 0 0 0 96.70940856760585,-20.61804885739363"/><text text-anchor="middle" pointer-events="none" font-size="8px" fill="#000000" x="65.38474800963836" y="-21.789222173131236" transform="rotate(180 65.38474800963836 -24.789222173131236)" font-family="Helvetica Neue, Helvetica, Arial, sans-serif">TRANSACTION</text></g><g class="relationship" transform="translate(88.68553769950007 -55.06128620106574) rotate(459.9306749830328)"><path class="b-outline" fill="#A5ABB6" stroke="none" d="M 14.44320574945421,-20.411854586953456 L 15.247803529220876,-19.818034401379958 A 51.32806648146624 51.32806648146624 0 0 1 26.640548128250657,-31.054328158753925 L 26.0579097048362,-31.867059644277354 A 52.32806648146624 52.32806648146624 0 0 0 14.44320574945421,-20.411854586953456 Z M 82.9408133674356,-34.521947682529486 L 82.43640792534154,-33.658480746285896 A 51.32806648146624 51.32806648146624 0 0 1 94.82620569989567,-23.53218635957281 L 92.58883598402335,-21.533642701181172 L 99.8623691887882,-18.64474763226934 L 97.80936532105875,-26.196911237428324 L 95.57199560518643,-24.198367579036688 A 52.32806648146624 52.32806648146624 0 0 0 82.9408133674356,-34.521947682529486"/><text text-anchor="middle" pointer-events="none" font-size="8px" fill="#000000" x="54.12991793736231" y="-38.11010098239157" transform="rotate(180 54.12991793736231 -41.11010098239157)" font-family="Helvetica Neue, Helvetica, Arial, sans-serif">THREATENED</text></g><g class="relationship" transform="translate(88.68553769950007 -55.06128620106574) rotate(226.3832542936285)"><path class="b-outline" fill="#A5ABB6" stroke="none" d="M 25 0.5 L 25.063978032673134 0.5 L 25.063978032673134 -0.5 L 25 -0.5 Z M 106.05616553267313 0.5 L 106.12014356534627 0.5 L 106.12014356534627 3.5 L 113.12014356534627 0 L 106.12014356534627 -3.5 L 106.12014356534627 -0.5 L 106.05616553267313 -0.5 Z"/><text text-anchor="middle" pointer-events="none" font-size="8px" fill="#000000" x="65.56007178267313" y="3" transform="rotate(180 65.56007178267313 0)" font-family="Helvetica Neue, Helvetica, Arial, sans-serif">DESIRES_TO_VISIT</text></g><g class="relationship" transform="translate(88.68553769950007 -55.06128620106574) rotate(426.59463010558204)"><path class="b-outline" fill="#A5ABB6" stroke="none" d="M 24.018736134675446,-6.953439040707552 L 24.277555179777966,-5.987513214418485 A 236.97974069981473 236.97974069981473 0 0 1 66.72541332350295,-13.308566544666036 L 66.64571447668561,-14.305385532153707 A 237.97974069981473 237.97974069981473 0 0 0 24.018736134675446,-6.953439040707552 Z M 99.80797422827382,-14.638640823378438 L 99.74832398741643,-13.640421484372382 A 236.97974069981473 236.97974069981473 0 0 1 142.33473671584554,-7.173897396578553 L 141.61667139297876,-4.261101112576489 L 149.25093893232815,-5.983877690556435 L 143.29215714633457,-11.057625775247974 L 142.5740918234678,-8.14482949124591 A 237.97974069981473 237.97974069981473 0 0 0 99.80797422827382,-14.638640823378438"/><text text-anchor="middle" pointer-events="none" font-size="8px" fill="#000000" x="83.22605650663358" y="-11.55041177872414" font-family="Helvetica Neue, Helvetica, Arial, sans-serif">ASKED</text></g><g class="relationship" transform="translate(88.68553769950007 -55.06128620106574) rotate(226.3832542936285)"><path class="b-outline" fill="#A5ABB6" stroke="none" d="M 21.40063509461097,12.933012701892217 L 21.90063509461097,12.06698729810778 A 91.4300840243291 91.4300840243291 0 0 0 52.7531197186671,23.100205525633953 L 52.590563186572545,24.086904757352215 A 92.4300840243291 92.4300840243291 0 0 1 21.40063509461097,12.933012701892217 Z M 78.19794051102372,24.708519250518847 L 78.08345112679399,23.715094778855956 A 91.4300840243291 91.4300840243291 0 0 0 109.43493979554296,14.191866849884828 L 108.06276793980105,11.524069181711734 L 115.8884963305705,11.434765464515891 L 111.2645022698655,17.748930407448956 L 109.89233041412359,15.081132739275862 A 92.4300840243291 92.4300840243291 0 0 1 78.19794051102372,24.708519250518847"/><text text-anchor="middle" pointer-events="none" font-size="8px" fill="#000000" x="65.3847480096384" y="27.78922217313125" transform="rotate(180 65.3847480096384 24.78922217313125)" font-family="Helvetica Neue, Helvetica, Arial, sans-serif">LEFT</text></g><g class="relationship" transform="translate(88.68553769950007 -55.06128620106574) rotate(226.3832542936285)"><path class="b-outline" fill="#A5ABB6" stroke="none" d="M 12.066987298107785,21.900635094610966 L 12.933012701892222,21.400635094610966 A 63.142102028330726 63.142102028330726 0 0 0 39.052084965389895,46.141627663827464 L 38.599714974150615,47.033458023832196 A 64.14210202833073 64.14210202833073 0 0 1 12.066987298107785,21.900635094610966 Z M 91.63712967517719,49.30377233986465 L 91.26262600584326,48.376546907914346 A 63.142102028330726 63.142102028330726 0 0 0 119.40040194735172,25.958067604417792 L 116.94001229399454,24.241535416064508 L 123.81570866240224,20.503247111309904 L 122.6809214851613,28.246777188888835 L 120.22053183180412,26.53024500053555 A 64.14210202833073 64.14210202833073 0 0 1 91.63712967517719,49.30377233986465"/><text text-anchor="middle" pointer-events="none" font-size="8px" fill="#000000" x="64.89391206151268" y="56.41345896726611" transform="rotate(180 64.89391206151268 53.41345896726611)" font-family="Helvetica Neue, Helvetica, Arial, sans-serif">COMING_TO</text></g><g class="relationship" transform="translate(68.59144298246386 59.70985680738633) rotate(444.67287257424306)"><path class="b-outline" fill="#A5ABB6" stroke="none" d="M 25 0.5 L 57.44939253273856 0.5 L 57.44939253273856 -0.5 L 25 -0.5 Z M 139.44939253273856 0.5 L 171.8987850654771 0.5 L 171.8987850654771 3.5 L 178.8987850654771 0 L 171.8987850654771 -3.5 L 171.8987850654771 -0.5 L 139.44939253273856 -0.5 Z"/><text text-anchor="middle" pointer-events="none" font-size="8px" fill="#000000" x="98.44939253273856" y="3" font-family="Helvetica Neue, Helvetica, Arial, sans-serif">INTERACTED_WITH</text></g><g class="relationship" transform="translate(68.59144298246386 59.70985680738633) rotate(366.77971275393895)"><path class="b-outline" fill="#A5ABB6" stroke="none" d="M 25 0.5 L 59.98952518927125 0.5 L 59.98952518927125 -0.5 L 25 -0.5 Z M 141.98952518927126 0.5 L 176.9790503785425 0.5 L 176.9790503785425 3.5 L 183.9790503785425 0 L 176.9790503785425 -3.5 L 176.9790503785425 -0.5 L 141.98952518927126 -0.5 Z"/><text text-anchor="middle" pointer-events="none" font-size="8px" fill="#000000" x="100.98952518927125" y="3" font-family="Helvetica Neue, Helvetica, Arial, sans-serif">INTERACTED_WITH</text></g><g class="relationship" transform="translate(68.59144298246386 59.70985680738633) rotate(188.38800979734657)"><path class="b-outline" fill="#A5ABB6" stroke="none" d="M 25 0.5 L 84.77557321132846 0.5 L 84.77557321132846 -0.5 L 25 -0.5 Z M 124.55291696132846 0.5 L 184.32849017265693 0.5 L 184.32849017265693 3.5 L 191.32849017265693 0 L 184.32849017265693 -3.5 L 184.32849017265693 -0.5 L 124.55291696132846 -0.5 Z"/><text text-anchor="middle" pointer-events="none" font-size="8px" fill="#000000" x="104.66424508632846" y="3" transform="rotate(180 104.66424508632846 0)" font-family="Helvetica Neue, Helvetica, Arial, sans-serif">AUTHOR</text></g><g class="relationship" transform="translate(68.59144298246386 59.70985680738633) rotate(279.9306749830328)"><path class="b-outline" fill="#A5ABB6" stroke="none" d="M 20.90208894244944,13.724164012497553 L 21.434121018964774,12.87743981326927 A 65.99626674943084 65.99626674943084 0 0 0 38.1340419150191,20.372648858293985 L 37.855053256239174,21.332943254962103 A 66.99626674943084 66.99626674943084 0 0 1 20.90208894244944,13.724164012497553 Z M 71.2928533427212,22.34997885454834 L 71.07274254851905,21.374503976206668 A 65.99626674943084 65.99626674943084 0 0 0 88.19731654453913,14.908092141353993 L 86.75855040320036,12.275611943795596 L 94.57956469573186,11.989717844489892 L 90.11567139965751,18.418065738098523 L 88.67690525831874,15.785585540540126 A 66.99626674943084 66.99626674943084 0 0 1 71.2928533427212,22.34997885454834"/><text text-anchor="middle" pointer-events="none" font-size="8px" fill="#000000" x="54.524653261410165" y="26.46233334075181" font-family="Helvetica Neue, Helvetica, Arial, sans-serif">GUEST</text></g><g class="relationship" transform="translate(68.59144298246386 59.70985680738633) rotate(346.50900756825354)"><path class="b-outline" fill="#A5ABB6" stroke="none" d="M 13.473521019338785,21.06452542407343 L 14.30499063164133,20.50895519105383 A 140.98731539020648 140.98731539020648 0 0 0 96.90183580434764,78.84880519135201 L 96.65621212395823,79.81817045152589 A 141.98731539020648 141.98731539020648 0 0 1 13.473521019338785,21.06452542407343 Z M 160.40910775424058,81.2003488104739 L 160.2057272721449,80.22124903031737 A 140.98731539020648 140.98731539020648 0 0 0 245.25341839433318,25.515973550468452 L 242.83358880226933,23.742720961192994 L 249.79431270131988,20.16524660053205 L 248.47985785041828,27.88031033616906 L 246.06002825835444,26.107057746893602 A 141.98731539020648 141.98731539020648 0 0 1 160.40910775424058,81.2003488104739"/><text text-anchor="middle" pointer-events="none" font-size="8px" fill="#000000" x="128.46490017476955" y="86.63467478114153" font-family="Helvetica Neue, Helvetica, Arial, sans-serif">RELATIONSHIP</text></g><g class="relationship" transform="translate(68.59144298246386 59.70985680738633) rotate(279.9306749830328)"><path class="b-outline" fill="#A5ABB6" stroke="none" d="M 24.471206027250748,5.139073415689509 L 24.657117634413662,4.15650694245622 A 171.52847373088633 171.52847373088633 0 0 0 26.42072150080514,4.480659787846918 L 26.245091591065584,5.465116051377635 A 172.52847373088633 172.52847373088633 0 0 1 24.471206027250748,5.139073415689509 Z M 83.25850082946133,6.066406727425061 L 83.10367276895693,5.078465296124364 A 171.52847373088633 171.52847373088633 0 0 0 84.87372093540341,4.791580034765694 L 84.3782789520522,1.832773308882265 L 91.86017695968994,4.128683194593437 L 85.53431024653835,8.736655669276933 L 85.03886826318714,5.777848943393504 A 172.52847373088633 172.52847373088633 0 0 1 83.25850082946133,6.066406727425061"/><text text-anchor="middle" pointer-events="none" font-size="8px" fill="#000000" x="54.7320582086924" y="10.6372867696318" font-family="Helvetica Neue, Helvetica, Arial, sans-serif">INTERACTED</text></g><g class="relationship" transform="translate(68.59144298246386 59.70985680738633) rotate(279.9306749830328)"><path class="b-outline" fill="#A5ABB6" stroke="none" d="M 24.471206027250748,-5.139073415689509 L 24.657117634413662,-4.15650694245622 A 171.52847373088633 171.52847373088633 0 0 1 42.82191567020145,-6.596915811923594 L 42.741903670495475,-7.593709712337841 A 172.52847373088633 172.52847373088633 0 0 0 24.471206027250748,-5.139073415689509 Z M 66.72046482361668,-7.846599084136642 L 66.6614936129888,-6.848339400328314 A 171.52847373088633 171.52847373088633 0 0 1 84.87372093540341,-4.791580034765694 L 84.3782789520522,-1.832773308882265 L 91.86017695968994,-4.128683194593437 L 85.53431024653835,-8.736655669276933 L 85.03886826318714,-5.777848943393504 A 172.52847373088633 172.52847373088633 0 0 0 66.72046482361668,-7.846599084136642"/><text text-anchor="middle" pointer-events="none" font-size="8px" fill="#000000" x="54.73205820869234" y="-4.6372867696318" font-family="Helvetica Neue, Helvetica, Arial, sans-serif">SAW</text></g><g class="relationship" transform="translate(68.59144298246386 59.70985680738633) rotate(279.9306749830328)"><path class="b-outline" fill="#A5ABB6" stroke="none" d="M 20.90208894244944,-13.724164012497553 L 21.434121018964774,-12.87743981326927 A 65.99626674943084 65.99626674943084 0 0 1 31.607271703799473,-18.099622729613742 L 31.22938699327772,-19.025475388277037 A 66.99626674943084 66.99626674943084 0 0 0 20.90208894244944,-13.724164012497553 Z M 78.04650886869071,-20.449453027186124 L 77.72559162879168,-19.502345786618513 A 65.99626674943084 65.99626674943084 0 0 1 88.19731654453913,-14.908092141353993 L 86.75855040320036,-12.275611943795596 L 94.57956469573186,-11.989717844489892 L 90.11567139965751,-18.418065738098523 L 88.67690525831874,-15.785585540540126 A 66.99626674943084 66.99626674943084 0 0 0 78.04650886869071,-20.449453027186124"/><text text-anchor="middle" pointer-events="none" font-size="8px" fill="#000000" x="54.52465326141015" y="-20.46233334075181" font-family="Helvetica Neue, Helvetica, Arial, sans-serif">ATTACKED</text></g><g class="relationship" transform="translate(68.59144298246386 59.70985680738633) rotate(250.70582382084945)"><path class="b-outline" fill="#A5ABB6" stroke="none" d="M 25 0.5 L 78.74188082577454 0.5 L 78.74188082577454 -0.5 L 25 -0.5 Z M 141.80438082577456 0.5 L 195.5462616515491 0.5 L 195.5462616515491 3.5 L 202.5462616515491 0 L 195.5462616515491 -3.5 L 195.5462616515491 -0.5 L 141.80438082577456 -0.5 Z"/><text text-anchor="middle" pointer-events="none" font-size="8px" fill="#000000" x="110.27313082577454" y="3" transform="rotate(180 110.27313082577454 0)" font-family="Helvetica Neue, Helvetica, Arial, sans-serif">TRAVELED_TO</text></g><g class="relationship" transform="translate(68.59144298246386 59.70985680738633) rotate(346.50900756825354)"><path class="b-outline" fill="#A5ABB6" stroke="none" d="M 19.529452792776517,15.615712395363635 L 20.13821422178524,14.822359055072399 A 182.9837430047364 182.9837430047364 0 0 0 106.22946685195521,50.87755723693235 L 106.09119122248521,51.86795102240086 A 183.9837430047364 183.9837430047364 0 0 1 19.529452792776517,15.615712395363635 Z M 151.21182387771785,52.57974735106694 L 151.1048570095718,51.58548476546946 A 182.9837430047364 182.9837430047364 0 0 0 238.2905581650174,18.263800993512938 L 236.54025678884202,15.82731887936587 L 244.26739999405646,14.58584480146155 L 240.62429333325125,21.512443812375693 L 238.87399195707587,19.075961698228625 A 183.9837430047364 183.9837430047364 0 0 1 151.21182387771785,52.57974735106694"/><text text-anchor="middle" pointer-events="none" font-size="8px" fill="#000000" x="128.6374885424757" y="56.112511389390875" font-family="Helvetica Neue, Helvetica, Arial, sans-serif">HUSBAND</text></g><g class="relationship" transform="translate(68.59144298246386 59.70985680738633) rotate(346.50900756825354)"><path class="b-outline" fill="#A5ABB6" stroke="none" d="M 23.51253350472606,8.509451697326591 L 23.833972970029226,7.562521567831486 A 335.0481124870904 335.0481124870904 0 0 0 99.68919162405433,23.826919174577426 L 99.5941531317068,24.822392772907506 A 336.0481124870904 336.0481124870904 0 0 1 23.51253350472606,8.509451697326591 Z M 157.91418069923841,25.30625908534097 L 157.83567253144878,24.30934561487811 A 335.0481124870904 335.0481124870904 0 0 0 233.95031326710767,9.30580295849656 L 233.0332629956574,6.449403336659132 L 240.76808742997005,7.642085595418857 L 235.17304696237468,13.114335787613133 L 234.2559966909244,10.257936165775703 A 336.0481124870904 336.0481124870904 0 0 1 157.91418069923841,25.30625908534097"/><text text-anchor="middle" pointer-events="none" font-size="8px" fill="#000000" x="128.7477982746389" y="28.83193321949642" font-family="Helvetica Neue, Helvetica, Arial, sans-serif">MARRIED_TO</text></g><g class="relationship" transform="translate(68.59144298246386 59.70985680738633) rotate(279.9306749830328)"><path class="b-outline" fill="#A5ABB6" stroke="none" d="M 14.44320574945421,-20.411854586953456 L 15.247803529220876,-19.818034401379958 A 51.32806648146624 51.32806648146624 0 0 1 23.680795527708092,-28.764680480610124 L 23.040493669774598,-29.532803863099502 A 52.32806648146624 52.32806648146624 0 0 0 14.44320574945421,-20.411854586953456 Z M 86.16253115251702,-32.47889014689836 L 85.59655802788261,-31.65446645595324 A 51.32806648146624 51.32806648146624 0 0 1 94.82620569989567,-23.53218635957281 L 92.58883598402335,-21.533642701181172 L 99.8623691887882,-18.64474763226934 L 97.80936532105875,-26.196911237428324 L 95.57199560518643,-24.198367579036688 A 52.32806648146624 52.32806648146624 0 0 0 86.16253115251702,-32.47889014689836"/><text text-anchor="middle" pointer-events="none" font-size="8px" fill="#000000" x="54.12991793736231" y="-38.11010098239157" font-family="Helvetica Neue, Helvetica, Arial, sans-serif">INVESTIGATING</text></g><g class="relationship" transform="translate(68.59144298246386 59.70985680738633) rotate(346.50900756825354)"><path class="b-outline" fill="#A5ABB6" stroke="none" d="M 25 0.5 L 105.33844318097434 0.5 L 105.33844318097434 -0.5 L 25 -0.5 Z M 152.23297443097434 0.5 L 232.57141761194868 0.5 L 232.57141761194868 3.5 L 239.57141761194868 0 L 232.57141761194868 -3.5 L 232.57141761194868 -0.5 L 152.23297443097434 -0.5 Z"/><text text-anchor="middle" pointer-events="none" font-size="8px" fill="#000000" x="128.78570880597434" y="3" font-family="Helvetica Neue, Helvetica, Arial, sans-serif">HAS_WIFE</text></g><g class="relationship" transform="translate(68.59144298246386 59.70985680738633) rotate(279.9306749830328)"><path class="b-outline" fill="#A5ABB6" stroke="none" d="M 5.987513214418485,-24.277555179777966 L 6.953439040707552,-24.018736134675446 A 51.34225783127117 51.34225783127117 0 0 1 37.05834824832479,-58.23037201082709 L 36.678779751831236,-59.15553564849862 A 52.34225783127117 52.34225783127117 0 0 0 5.987513214418485,-24.277555179777966 Z M 70.76824046589252,-61.10346006653175 L 70.49652905726713,-60.1410812895303 A 51.34225783127117 51.34225783127117 0 0 1 104.30257042902898,-29.581415805562912 L 101.51210188013606,-28.479923509793473 L 107.33779721063983,-23.253904574107672 L 108.0231951608862,-31.05007219992217 L 105.23272661199329,-29.94857990415273 A 52.34225783127117 52.34225783127117 0 0 0 70.76824046589252,-61.10346006653175"/><text text-anchor="middle" pointer-events="none" font-size="8px" fill="#000000" x="53.58872965578683" y="-59.488209991102266" font-family="Helvetica Neue, Helvetica, Arial, sans-serif">ENEMY</text></g><g class="relationship" transform="translate(68.59144298246386 59.70985680738633) rotate(346.50900756825354)"><path class="b-outline" fill="#A5ABB6" stroke="none" d="M 23.51253350472606,-8.509451697326591 L 23.833972970029226,-7.562521567831486 A 335.0481124870904 335.0481124870904 0 0 1 106.98418069823991,-24.44302947503371 L 106.91091516566235,-25.440341944491593 A 336.0481124870904 336.0481124870904 0 0 0 23.51253350472606,-8.509451697326591 Z M 150.58817268271667,-25.802720948985552 L 150.5314649885625,-24.80433012499742 A 335.0481124870904 335.0481124870904 0 0 1 233.95031326710767,-9.30580295849656 L 233.0332629956574,-6.449403336659132 L 240.76808742997005,-7.642085595418857 L 235.17304696237468,-13.114335787613133 L 234.2559966909244,-10.257936165775703 A 336.0481124870904 336.0481124870904 0 0 0 150.58817268271667,-25.802720948985552"/><text text-anchor="middle" pointer-events="none" font-size="8px" fill="#000000" x="128.7477982746389" y="-22.83193321949642" font-family="Helvetica Neue, Helvetica, Arial, sans-serif">READ_TO</text></g><g class="relationship" transform="translate(68.59144298246386 59.70985680738633) rotate(346.50900756825354)"><path class="b-outline" fill="#A5ABB6" stroke="none" d="M 19.529452792776517,-15.615712395363635 L 20.13821422178524,-14.822359055072399 A 182.9837430047364 182.9837430047364 0 0 1 107.32757739557607,-51.02748300664416 L 107.19530290328683,-52.0186961314007 A 183.9837430047364 183.9837430047364 0 0 0 19.529452792776517,-15.615712395363635 Z M 150.10350665882498,-52.695590494478864 L 150.00256378606457,-51.70069827094969 A 182.9837430047364 182.9837430047364 0 0 1 238.2905581650174,-18.263800993512938 L 236.54025678884202,-15.82731887936587 L 244.26739999405646,-14.58584480146155 L 240.62429333325125,-21.512443812375693 L 238.87399195707587,-19.075961698228625 A 183.9837430047364 183.9837430047364 0 0 0 150.10350665882498,-52.695590494478864"/><text text-anchor="middle" pointer-events="none" font-size="8px" fill="#000000" x="128.6374885424757" y="-50.112511389390875" font-family="Helvetica Neue, Helvetica, Arial, sans-serif">PROMISE</text></g><g class="relationship" transform="translate(68.59144298246386 59.70985680738633) rotate(346.50900756825354)"><path class="b-outline" fill="#A5ABB6" stroke="none" d="M 13.473521019338785,-21.06452542407343 L 14.30499063164133,-20.50895519105383 A 140.98731539020648 140.98731539020648 0 0 1 105.69581866209471,-80.78050013968384 L 105.51256926575637,-81.76356659661421 A 141.98731539020648 141.98731539020648 0 0 0 13.473521019338785,-21.06452542407343 Z M 151.4767585636129,-82.76008145458265 L 151.3362875686505,-81.7699966604492 A 140.98731539020648 140.98731539020648 0 0 1 245.25341839433318,-25.515973550468452 L 242.83358880226933,-23.742720961192994 L 249.79431270131988,-20.16524660053205 L 248.47985785041828,-27.88031033616906 L 246.06002825835444,-26.107057746893602 A 141.98731539020648 141.98731539020648 0 0 0 151.4767585636129,-82.76008145458265"/><text text-anchor="middle" pointer-events="none" font-size="8px" fill="#000000" x="128.46490017476947" y="-80.63467478114153" font-family="Helvetica Neue, Helvetica, Arial, sans-serif">BLESSING</text></g><g class="relationship" transform="translate(68.59144298246386 59.70985680738633) rotate(346.50900756825354)"><path class="b-outline" fill="#A5ABB6" stroke="none" d="M 5.987513214418485,-24.277555179777966 L 6.953439040707552,-24.018736134675446 A 128.9728638239395 128.9728638239395 0 0 1 115.78990336428718,-118.64668336202408 L 115.66784857487106,-119.63920672617252 A 129.9728638239395 129.9728638239395 0 0 0 5.987513214418485,-24.277555179777966 Z M 140.8305068199482,-120.27789888671856 L 140.7589622879001,-119.28046148019422 A 128.9728638239395 128.9728638239395 0 0 1 254.25597825603478,-30.29590254299193 L 251.40132382287774,-29.37343407889308 L 256.88418041112493,-23.78878694297532 L 258.0621841669108,-31.525860495123727 L 255.2075297337538,-30.603392031024878 A 129.9728638239395 129.9728638239395 0 0 0 140.8305068199482,-120.27789888671856"/><text text-anchor="middle" pointer-events="none" font-size="8px" fill="#000000" x="128.2463671933826" y="-117.06927868770256" font-family="Helvetica Neue, Helvetica, Arial, sans-serif">HEIR</text></g><g class="relationship" transform="translate(-30.9721575057974 66.18021256372874) rotate(314.62331151633725)"><path class="b-outline" fill="#A5ABB6" stroke="none" d="M 24.018736134675446,-6.953439040707552 L 24.277555179777966,-5.987513214418485 A 230.75527770079023 230.75527770079023 0 0 1 64.91975519914982,-13.06000307914988 L 64.83706300334117,-14.056578214677728 A 231.75527770079023 231.75527770079023 0 0 0 24.018736134675446,-6.953439040707552 Z M 98.436954985678,-14.40029232955024 L 98.37466713047907,-13.402234103245434 A 230.75527770079023 230.75527770079023 0 0 1 139.15304464633746,-7.162645777442813 L 138.43603011835964,-4.2495906515193855 L 146.06967569482174,-5.975121066481815 L 140.10906401697454,-11.046719278674049 L 139.39204948899672,-8.133664152750622 A 231.75527770079023 231.75527770079023 0 0 0 98.436954985678,-14.40029232955024"/><text text-anchor="middle" pointer-events="none" font-size="8px" fill="#000000" x="81.6358860437316" y="-11.338209713165242" font-family="Helvetica Neue, Helvetica, Arial, sans-serif">AGENT</text></g></g><g class="layer nodes"><g class="node" aria-label="graph-node0" transform="translate(-20.37520765637871,224.1910965316182)"><circle class="b-outline" cx="0" cy="0" r="25" fill="#8DCC93" stroke="#5db665" stroke-width="2px"/><text class="caption" text-anchor="middle" pointer-events="none" x="0" y="5" font-size="10px" fill="#2A2C34" font-family="Helvetica Neue, Helvetica, Arial, sans-serif"> </text></g><g class="node" aria-label="graph-node1" transform="translate(157.61524933576948,104.18492936507741)"><circle class="b-outline" cx="0" cy="0" r="25" fill="#ECB5C9" stroke="#da7298" stroke-width="2px"/><text class="caption" text-anchor="middle" pointer-events="none" x="0" y="5" font-size="10px" fill="#2A2C34" font-family="Helvetica Neue, Helvetica, Arial, sans-serif"> I</text></g><g class="node" aria-label="graph-node2" transform="translate(-26.934912638947072,376.13377664109606)"><circle class="b-outline" cx="0" cy="0" r="25" fill="#C990C0" stroke="#b261a5" stroke-width="2px"/><text class="caption" text-anchor="middle" pointer-events="none" x="0" y="5" font-size="10px" fill="#FFFFFF" font-family="Helvetica Neue, Helvetica, Arial, sans-serif"> Calèche</text></g><g class="node" aria-label="graph-node3" transform="translate(87.52181720221806,262.7279729524183)"><circle class="b-outline" cx="0" cy="0" r="25" fill="#ECB5C9" stroke="#da7298" stroke-width="2px"/><text class="caption" text-anchor="middle" pointer-events="none" x="0" y="5" font-size="10px" fill="#2A2C34" font-family="Helvetica Neue, Helvetica, Arial, sans-serif"> Driver</text></g><g class="node" aria-label="graph-node4" transform="translate(330.8131965580722,265.75653036534504)"><circle class="b-outline" cx="0" cy="0" r="25" fill="#8DCC93" stroke="#5db665" stroke-width="2px"/><text class="caption" text-anchor="middle" pointer-events="none" x="0" y="5" font-size="10px" fill="#2A2C34" font-family="Helvetica Neue, Helvetica, Arial, sans-serif"> </text></g><g class="node" aria-label="graph-node5" transform="translate(276.1091802357166,84.38032949048181)"><circle class="b-outline" cx="0" cy="0" r="25" fill="#ECB5C9" stroke="#da7298" stroke-width="2px"/><text class="caption" text-anchor="middle" pointer-events="none" x="0" y="0" font-size="10px" fill="#2A2C34" font-family="Helvetica Neue, Helvetica, Arial, sans-serif"> Count</text><text class="caption" text-anchor="middle" pointer-events="none" x="0" y="10" font-size="10px" fill="#2A2C34" font-family="Helvetica Neue, Helvetica, Arial, sans-serif"> Dracula</text></g><g class="node" aria-label="graph-node6" transform="translate(398.99001272826644,153.39198174220513)"><circle class="b-outline" cx="0" cy="0" r="25" fill="#ECB5C9" stroke="#da7298" stroke-width="2px"/><text class="caption" text-anchor="middle" pointer-events="none" x="0" y="5" font-size="10px" fill="#2A2C34" font-family="Helvetica Neue, Helvetica, Arial, sans-serif"> Mr. Harker</text></g><g class="node" aria-label="graph-node7" transform="translate(210.84847513694868,204.85464656285146)"><circle class="b-outline" cx="0" cy="0" r="25" fill="#ECB5C9" stroke="#da7298" stroke-width="2px"/><text class="caption" text-anchor="middle" pointer-events="none" x="0" y="0" font-size="10px" fill="#2A2C34" font-family="Helvetica Neue, Helvetica, Arial, sans-serif"> Mr.</text><text class="caption" text-anchor="middle" pointer-events="none" x="0" y="10" font-size="10px" fill="#2A2C34" font-family="Helvetica Neue, Helvetica, Arial, sans-serif"> Hawki…</text></g><g class="node" aria-label="graph-node8" transform="translate(360.3945951614748,-126.87599624687475)"><circle class="b-outline" cx="0" cy="0" r="25" fill="#8DCC93" stroke="#5db665" stroke-width="2px"/><text class="caption" text-anchor="middle" pointer-events="none" x="0" y="5" font-size="10px" fill="#2A2C34" font-family="Helvetica Neue, Helvetica, Arial, sans-serif"> </text></g><g class="node" aria-label="graph-node9" transform="translate(199.75574429817325,-88.89228508107153)"><circle class="b-outline" cx="0" cy="0" r="25" fill="#ECB5C9" stroke="#da7298" stroke-width="2px"/><text class="caption" text-anchor="middle" pointer-events="none" x="0" y="5" font-size="10px" fill="#2A2C34" font-family="Helvetica Neue, Helvetica, Arial, sans-serif"> He</text></g><g class="node" aria-label="graph-node10" transform="translate(312.7655376089558,-239.46842677748128)"><circle class="b-outline" cx="0" cy="0" r="25" fill="#ECB5C9" stroke="#da7298" stroke-width="2px"/><text class="caption" text-anchor="middle" pointer-events="none" x="0" y="5" font-size="10px" fill="#2A2C34" font-family="Helvetica Neue, Helvetica, Arial, sans-serif"> His Wife</text></g><g class="node" aria-label="graph-node11" transform="translate(223.60347573602064,-282.7253503599477)"><circle class="b-outline" cx="0" cy="0" r="25" fill="#ECB5C9" stroke="#da7298" stroke-width="2px"/><text class="caption" text-anchor="middle" pointer-events="none" x="0" y="0" font-size="10px" fill="#2A2C34" font-family="Helvetica Neue, Helvetica, Arial, sans-serif"> The Old</text><text class="caption" text-anchor="middle" pointer-events="none" x="0" y="10" font-size="10px" fill="#2A2C34" font-family="Helvetica Neue, Helvetica, Arial, sans-serif"> Lady</text></g><g class="node" aria-label="graph-node12" transform="translate(230.58529193727568,-183.16204806144296)"><circle class="b-outline" cx="0" cy="0" r="25" fill="#F16667" stroke="#eb2728" stroke-width="2px"/><text class="caption" text-anchor="middle" pointer-events="none" x="0" y="-5" font-size="10px" fill="#FFFFFF" font-family="Helvetica Neue, Helvetica, Arial, sans-serif"> St.</text><text class="caption" text-anchor="middle" pointer-events="none" x="0" y="5" font-size="10px" fill="#FFFFFF" font-family="Helvetica Neue, Helvetica, Arial, sans-serif"> George'S</text><text class="caption" text-anchor="middle" pointer-events="none" x="0" y="15" font-size="10px" fill="#FFFFFF" font-family="Helvetica Neue, Helvetica, Arial, sans-serif"> Day</text></g><g class="node" aria-label="graph-node13" transform="translate(325.86243794918414,-2.012668789270215)"><circle class="b-outline" cx="0" cy="0" r="25" fill="#ECB5C9" stroke="#da7298" stroke-width="2px"/><text class="caption" text-anchor="middle" pointer-events="none" x="0" y="5" font-size="10px" fill="#2A2C34" font-family="Helvetica Neue, Helvetica, Arial, sans-serif"> Mina</text></g><g class="node" aria-label="graph-node14" transform="translate(-304.8015818325399,-18.108902272204805)"><circle class="b-outline" cx="0" cy="0" r="25" fill="#8DCC93" stroke="#5db665" stroke-width="2px"/><text class="caption" text-anchor="middle" pointer-events="none" x="0" y="5" font-size="10px" fill="#2A2C34" font-family="Helvetica Neue, Helvetica, Arial, sans-serif"> </text></g><g class="node" aria-label="graph-node15" transform="translate(-411.5821681592282,-46.28265338424364)"><circle class="b-outline" cx="0" cy="0" r="25" fill="#ECB5C9" stroke="#da7298" stroke-width="2px"/><text class="caption" text-anchor="middle" pointer-events="none" x="0" y="0" font-size="10px" fill="#2A2C34" font-family="Helvetica Neue, Helvetica, Arial, sans-serif"> Bram</text><text class="caption" text-anchor="middle" pointer-events="none" x="0" y="10" font-size="10px" fill="#2A2C34" font-family="Helvetica Neue, Helvetica, Arial, sans-serif"> Stoker</text></g><g class="node" aria-label="graph-node16" transform="translate(-229.6257686414753,-121.664864314095)"><circle class="b-outline" cx="0" cy="0" r="25" fill="#ECB5C9" stroke="#da7298" stroke-width="2px"/><text class="caption" text-anchor="middle" pointer-events="none" x="0" y="5" font-size="10px" fill="#2A2C34" font-family="Helvetica Neue, Helvetica, Arial, sans-serif"> Dracula</text></g><g class="node" aria-label="graph-node17" transform="translate(-145.42295577795625,28.152721582572056)"><circle class="b-outline" cx="0" cy="0" r="25" fill="#8DCC93" stroke="#5db665" stroke-width="2px"/><text class="caption" text-anchor="middle" pointer-events="none" x="0" y="5" font-size="10px" fill="#2A2C34" font-family="Helvetica Neue, Helvetica, Arial, sans-serif"> </text></g><g class="node" aria-label="graph-node18" transform="translate(-392.32111755832756,-143.48828203274883)"><circle class="b-outline" cx="0" cy="0" r="25" fill="#C990C0" stroke="#b261a5" stroke-width="2px"/><text class="caption" text-anchor="middle" pointer-events="none" x="0" y="5" font-size="10px" fill="#FFFFFF" font-family="Helvetica Neue, Helvetica, Arial, sans-serif"> Chapter I</text></g><g class="node" aria-label="graph-node19" transform="translate(-317.73266080769736,-208.97845851392373)"><circle class="b-outline" cx="0" cy="0" r="25" fill="#C990C0" stroke="#b261a5" stroke-width="2px"/><text class="caption" text-anchor="middle" pointer-events="none" x="0" y="5" font-size="10px" fill="#FFFFFF" font-family="Helvetica Neue, Helvetica, Arial, sans-serif"> Chapter Ii</text></g><g class="node" aria-label="graph-node20" transform="translate(-71.1988475115764,-55.508449834160544)"><circle class="b-outline" cx="0" cy="0" r="25" fill="#8DCC93" stroke="#5db665" stroke-width="2px"/><text class="caption" text-anchor="middle" pointer-events="none" x="0" y="5" font-size="10px" fill="#2A2C34" font-family="Helvetica Neue, Helvetica, Arial, sans-serif"> </text></g><g class="node" aria-label="graph-node21" transform="translate(88.68553769950007,-55.06128620106574)"><circle class="b-outline" cx="0" cy="0" r="25" fill="#ECB5C9" stroke="#da7298" stroke-width="2px"/><text class="caption" text-anchor="middle" pointer-events="none" x="0" y="5" font-size="10px" fill="#2A2C34" font-family="Helvetica Neue, Helvetica, Arial, sans-serif"> Count</text></g><g class="node" aria-label="graph-node22" transform="translate(68.59144298246386,59.70985680738633)"><circle class="b-outline" cx="0" cy="0" r="25" fill="#ECB5C9" stroke="#da7298" stroke-width="2px"/><text class="caption" text-anchor="middle" pointer-events="none" x="0" y="0" font-size="10px" fill="#2A2C34" font-family="Helvetica Neue, Helvetica, Arial, sans-serif"> Jonathan</text><text class="caption" text-anchor="middle" pointer-events="none" x="0" y="10" font-size="10px" fill="#2A2C34" font-family="Helvetica Neue, Helvetica, Arial, sans-serif"> Harker</text></g><g class="node" aria-label="graph-node23" transform="translate(-30.9721575057974,66.18021256372874)"><circle class="b-outline" cx="0" cy="0" r="25" fill="#ECB5C9" stroke="#da7298" stroke-width="2px"/><text class="caption" text-anchor="middle" pointer-events="none" x="0" y="0" font-size="10px" fill="#2A2C34" font-family="Helvetica Neue, Helvetica, Arial, sans-serif"> Peter</text><text class="caption" text-anchor="middle" pointer-events="none" x="0" y="10" font-size="10px" fill="#2A2C34" font-family="Helvetica Neue, Helvetica, Arial, sans-serif"> Hawki…</text></g><g class="node" aria-label="graph-node24" transform="translate(-6.59404203008771,-155.05616479524667)"><circle class="b-outline" cx="0" cy="0" r="25" fill="#FFC454" stroke="#d7a013" stroke-width="2px"/><text class="caption" text-anchor="middle" pointer-events="none" x="0" y="5" font-size="10px" fill="#2A2C34" font-family="Helvetica Neue, Helvetica, Arial, sans-serif"> London</text></g></g></svg>